<?xml version="1.0" standalone="no"?>
<!DOCTYPE svg PUBLIC "-//W3C//DTD SVG 20010904//EN"
 "http://www.w3.org/TR/2001/REC-SVG-20010904/DTD/svg10.dtd">
<svg version="1.0" xmlns="http://www.w3.org/2000/svg"
 width="454.000000pt" height="454.000000pt" viewBox="0 0 454.000000 454.000000"
 preserveAspectRatio="xMidYMid meet">
<metadata>
Created by potrace 1.14, written by Peter Selinger 2001-2017
</metadata>
<g transform="translate(0.000000,454.000000) scale(0.100000,-0.100000)"
fill="#000000" stroke="none">
<path d="M1233 3833 c-67 -6 -101 -57 -192 -286 -88 -221 -183 -523 -227 -722
-9 -44 -35 -129 -56 -190 -22 -60 -41 -119 -44 -130 -32 -145 -32 -254 1 -444
2 -13 7 -78 11 -145 3 -66 8 -123 9 -126 2 -3 6 -66 10 -140 4 -74 9 -138 11
-141 3 -6 11 -187 15 -354 1 -33 -4 -72 -10 -87 -11 -29 -2 -70 19 -83 6 -4
25 -8 43 -10 63 -7 104 -23 262 -99 118 -56 169 -86 193 -114 64 -73 63 -72
120 -72 30 0 68 6 85 14 18 8 61 17 97 19 36 3 81 12 100 20 19 8 78 18 130
21 52 4 104 9 115 11 11 2 52 7 90 10 68 6 320 31 400 39 22 3 69 8 105 11 36
4 79 8 96 10 17 2 86 9 155 15 68 6 140 13 159 15 19 2 67 7 105 10 39 4 81 8
95 10 14 2 54 6 90 10 36 3 85 8 110 11 25 3 137 8 250 10 229 5 235 7 232 71
-9 168 4 439 33 698 7 63 24 253 30 333 3 40 10 83 14 96 5 12 12 49 16 82 3
32 8 74 11 93 10 73 25 69 -286 86 -47 3 -112 7 -145 10 -33 2 -98 7 -145 10
-265 18 -350 26 -350 35 0 8 575 572 628 615 44 36 132 126 132 134 0 28 -127
176 -179 209 -31 20 -45 23 -98 18 -43 -4 -92 1 -155 15 -51 11 -116 24 -145
29 -28 5 -65 16 -82 24 -18 10 -54 16 -88 15 -32 0 -105 9 -163 20 -58 11
-132 25 -164 31 -33 7 -69 18 -82 27 -14 9 -55 16 -106 18 -91 4 -449 71 -458
86 -8 13 -92 27 -114 19 -10 -3 -57 2 -105 11 -47 9 -164 31 -260 49 -139 27
-175 37 -178 50 -4 16 -58 33 -88 28 -5 -1 -29 -3 -52 -5z"/>
</g>
</svg>
