<?xml version="1.0" standalone="no"?>
<!DOCTYPE svg PUBLIC "-//W3C//DTD SVG 20010904//EN"
 "http://www.w3.org/TR/2001/REC-SVG-20010904/DTD/svg10.dtd">
<svg version="1.0" xmlns="http://www.w3.org/2000/svg"
 width="300.000000pt" height="199.000000pt" viewBox="0 0 300.000000 199.000000"
 preserveAspectRatio="xMidYMid meet">
<metadata>
Created by potrace 1.16, written by Peter Selinger 2001-2019
</metadata>
<g transform="translate(0.000000,199.000000) scale(0.100000,-0.100000)"
fill="#000000" stroke="none">
<path d="M1082 1950 c-6 -22 -12 -54 -12 -72 0 -18 -5 -49 -11 -68 -5 -19 -10
-50 -11 -68 0 -24 -8 -38 -31 -57 l-32 -25 60 1 c33 0 55 3 49 5 -8 3 -8 20 2
61 36 156 25 346 -14 223z"/>
<path d="M1397 1984 c-4 -4 -7 -22 -7 -40 0 -24 6 -37 21 -44 26 -15 70 -5 63
13 -3 8 2 19 9 26 12 9 16 6 21 -22 7 -38 -6 -88 -18 -69 -13 21 -26 13 -26
-17 0 -16 -3 -37 -6 -45 -6 -15 -7 -15 -19 0 -11 15 -14 15 -41 -2 -16 -10
-32 -23 -36 -29 -5 -6 -11 -6 -20 3 -9 9 -9 12 2 12 8 0 2 13 -17 33 -17 17
-38 47 -47 65 -15 28 -15 32 -1 32 8 0 15 5 15 10 0 15 -40 12 -41 -2 -2 -35
-11 -63 -22 -70 -8 -5 -9 -8 0 -8 6 0 9 -9 6 -20 -3 -11 -9 -18 -13 -15 -4 3
-11 -3 -14 -12 -9 -21 12 -34 44 -27 18 4 21 3 11 -4 -11 -8 -10 -13 8 -28 24
-21 28 -54 7 -54 -18 0 -31 19 -31 44 0 11 -6 21 -13 24 -9 3 -12 -3 -10 -14
2 -15 -2 -18 -25 -16 -23 3 -28 0 -25 -14 4 -21 52 -39 133 -49 59 -7 60 -7
42 12 -9 11 -17 27 -17 36 0 23 27 21 40 -3 6 -11 8 -20 5 -20 -3 0 -1 -9 5
-20 6 -11 16 -20 22 -20 5 0 8 9 5 20 -7 27 -2 25 31 -9 20 -21 36 -29 55 -27
21 3 32 -5 52 -34 14 -21 30 -54 36 -74 10 -36 11 -37 32 -22 45 32 87 48 111
42 17 -4 26 -1 30 10 6 15 9 15 28 -2 12 -11 18 -14 15 -8 -4 7 4 14 21 17 15
3 44 17 65 31 21 14 42 26 47 26 6 0 10 5 10 11 0 6 9 8 23 4 22 -7 22 -7 2
10 -17 14 -18 16 -2 11 12 -4 33 8 65 39 26 25 50 45 54 45 5 0 8 5 8 10 0 6
-6 10 -14 10 -8 0 -29 24 -47 53 -17 28 -40 58 -51 65 -18 13 -17 32 2 32 21
0 78 -62 100 -109 14 -28 28 -50 31 -51 3 0 23 11 43 25 20 14 43 25 51 25 8
0 15 4 15 8 0 5 -10 8 -21 7 -21 -1 -89 58 -89 77 0 5 -4 7 -9 4 -13 -8 -51 8
-80 33 -27 23 -51 27 -69 9 -14 -14 -62 -20 -62 -7 0 5 -7 9 -16 9 -8 0 -12
-4 -9 -10 11 -18 -17 -11 -62 15 -23 14 -43 22 -44 18 -1 -4 -4 3 -8 17 l-7
25 -170 3 c-94 1 -173 -1 -177 -4z"/>
<path d="M190 1722 c-19 -2 -39 -8 -45 -14 -7 -8 -6 -9 3 -3 10 5 13 0 10 -21
-2 -19 -10 -30 -22 -32 -15 -3 -18 0 -13 17 7 27 -9 28 -18 1 -3 -11 -16 -28
-28 -38 -12 -9 -31 -28 -41 -40 -19 -22 -19 -22 0 -44 l19 -22 -27 17 -28 17
0 -210 c0 -166 3 -212 13 -216 16 -6 19 -63 5 -81 -6 -7 -5 -19 2 -32 9 -17 8
-20 -5 -15 -11 5 -15 -1 -15 -23 0 -22 14 -42 55 -83 30 -29 58 -51 62 -47 3
4 1 13 -5 19 -14 14 -16 28 -4 28 4 0 18 -28 32 -62 30 -78 50 -107 73 -108
11 0 25 -16 37 -42 10 -24 25 -51 33 -61 17 -21 39 -23 31 -2 -4 8 -1 15 5 15
7 0 14 -7 17 -15 4 -8 17 -15 30 -15 13 0 24 -5 24 -11 0 -5 4 -8 9 -5 15 10
0 53 -25 66 -13 7 -21 17 -17 22 3 6 -19 34 -48 64 -29 30 -48 54 -42 54 7 0
15 -4 18 -10 12 -20 26 -10 15 10 -6 11 -8 25 -5 30 3 6 -3 10 -14 10 -12 0
-21 5 -21 10 0 6 9 10 20 10 11 0 20 5 20 11 0 5 -4 8 -9 5 -5 -4 -23 8 -40
25 -19 19 -37 29 -47 25 -11 -4 -14 -1 -9 13 5 17 1 18 -30 14 -40 -5 -80 22
-54 37 7 5 18 5 24 1 9 -7 85 -31 98 -31 4 0 -4 19 -16 42 -22 41 -23 41 -78
41 l-56 0 21 39 c11 22 22 35 24 29 2 -6 12 -1 22 11 21 27 27 23 36 -22 6
-27 4 -32 -7 -25 -12 7 -12 6 -1 -7 8 -9 20 -14 28 -11 8 3 14 -1 14 -11 0 -9
6 -16 14 -16 16 0 26 -21 26 -56 0 -13 4 -24 9 -24 5 0 13 -9 16 -20 4 -14 15
-20 35 -20 19 0 36 -10 54 -31 17 -20 32 -29 43 -25 21 6 135 18 213 21 30 2
58 4 63 4 4 1 7 11 8 24 0 12 3 16 6 9 2 -6 8 -10 13 -7 4 3 6 -5 2 -17 -3
-14 -2 -19 6 -14 7 4 12 17 12 29 0 19 3 17 20 -11 11 -18 24 -30 29 -27 16 9
23 -13 11 -35 -17 -31 -1 -70 34 -85 41 -16 136 -28 136 -17 0 5 14 26 30 47
28 35 43 94 20 80 -12 -8 -13 5 -1 24 7 11 13 12 23 3 9 -7 18 -8 24 -2 6 6
19 5 34 -3 21 -11 25 -20 26 -60 1 -26 4 -50 6 -53 3 -3 15 14 27 38 17 35 18
46 8 63 -7 11 -11 35 -9 53 3 33 4 33 23 16 18 -16 19 -16 19 2 0 11 9 25 20
32 19 11 20 10 20 -15 -1 -16 3 -47 8 -71 8 -35 7 -45 -5 -49 -12 -5 -11 -9 3
-24 13 -15 14 -22 5 -33 -7 -8 -18 -13 -25 -10 -6 2 -22 -5 -35 -17 -13 -13
-30 -19 -42 -16 -16 4 -19 2 -14 -14 5 -14 3 -17 -9 -13 -9 3 -16 10 -16 15 0
5 -4 9 -10 9 -5 0 -10 -5 -10 -10 0 -16 -44 -57 -66 -62 -27 -5 -25 -43 2 -42
17 0 20 -5 17 -33 -2 -27 1 -33 17 -33 11 0 24 8 29 19 6 10 17 21 25 24 18 7
56 -3 56 -14 0 -5 -3 -8 -7 -7 -13 3 -73 -38 -66 -45 3 -4 1 -7 -5 -7 -7 0
-12 4 -12 9 0 6 -8 9 -18 8 -12 -1 -19 -10 -20 -28 -2 -25 1 -28 35 -31 30 -2
39 -8 41 -25 4 -25 29 -49 40 -38 4 4 1 10 -5 12 -7 3 -13 18 -13 33 0 17 -7
33 -16 38 -10 6 -14 14 -9 22 4 7 10 8 14 3 3 -5 18 -16 34 -26 15 -10 27 -24
27 -32 0 -8 5 -15 10 -15 7 0 7 -7 0 -20 -9 -17 -7 -22 16 -30 15 -6 40 -22
57 -36 16 -14 35 -23 41 -21 14 5 35 -22 36 -45 0 -25 45 -51 76 -45 22 4 25
1 21 -15 -4 -13 -1 -18 8 -15 10 4 10 0 2 -22 -6 -16 -7 -36 -2 -47 5 -10 9
-30 9 -43 1 -28 58 -65 88 -58 10 3 52 -3 94 -14 42 -10 87 -19 101 -19 32 0
73 28 73 51 0 10 7 22 17 27 12 7 31 -3 82 -44 44 -35 75 -54 94 -54 15 0 27
3 27 6 0 3 -18 23 -40 44 -22 21 -40 42 -40 47 0 4 4 4 8 -2 11 -16 106 -80
98 -67 -5 8 0 12 13 12 14 0 21 -6 21 -20 0 -19 7 -20 155 -20 85 0 154 3 154
8 -5 30 2 43 21 37 16 -5 20 -2 20 19 0 36 -29 31 -43 -6 -7 -19 -47 -25 -47
-8 0 6 4 10 9 10 14 0 -17 57 -34 64 -9 3 -29 3 -45 -1 -20 -3 -30 -1 -30 6 0
23 21 51 37 51 9 0 14 -3 10 -6 -13 -13 80 -74 113 -74 25 0 25 5 -1 31 -11
11 -18 23 -15 27 3 3 19 -9 34 -26 33 -37 42 -40 42 -12 0 11 -7 20 -15 20 -8
0 -19 9 -25 19 -5 11 -23 22 -38 26 -28 6 -41 35 -15 35 7 0 13 5 13 11 0 15
60 1 83 -19 10 -9 17 -11 17 -4 0 7 -5 12 -11 12 -5 0 -7 4 -4 10 3 5 16 9 28
8 12 0 34 4 48 10 22 9 26 16 24 43 -1 17 -10 36 -19 41 -20 11 -21 28 -1 28
18 0 20 16 3 23 -9 3 -7 9 7 20 26 20 34 13 30 -24 -3 -25 -1 -30 11 -25 9 3
23 6 32 6 12 1 10 5 -8 16 -14 8 -17 13 -7 10 9 -3 17 -2 18 2 4 43 19 69 19
34 0 -32 23 -26 40 11 13 27 22 33 60 38 61 8 95 23 114 51 9 12 16 18 16 13
0 -6 6 -2 13 7 9 11 18 14 27 8 10 -6 21 -1 37 16 20 22 23 35 23 106 0 78 -1
80 -22 74 -13 -3 -26 -6 -30 -6 -10 0 3 -40 13 -40 10 0 7 -36 -4 -46 -3 -4
-12 5 -18 20 -14 30 -33 34 -49 8 -9 -16 -11 -15 -29 6 -11 12 -23 22 -28 22
-4 1 -21 12 -38 25 -26 22 -28 25 -10 26 11 0 14 3 8 6 -7 2 -13 9 -13 14 0 5
12 3 26 -3 17 -8 28 -8 32 -2 9 14 42 26 42 15 0 -4 6 -8 13 -8 6 0 20 -4 30
-8 13 -6 17 -2 18 16 l0 24 15 -22 c9 -12 22 -19 30 -16 15 6 20 43 5 43 -18
0 -41 32 -41 56 0 14 -6 24 -15 24 -8 0 -24 14 -37 30 -23 31 -44 41 -34 15 3
-8 1 -15 -4 -15 -6 0 -10 5 -10 10 0 6 -17 10 -39 10 -31 0 -40 -4 -44 -22 -4
-12 -1 -28 4 -34 6 -7 8 -21 5 -31 -6 -20 29 -50 39 -33 3 5 -3 13 -12 19 -20
11 -19 12 15 16 15 2 21 -2 18 -11 -3 -7 2 -15 10 -18 21 -8 17 -21 -8 -22
-13 -1 -58 -4 -100 -8 -83 -6 -82 -6 -80 44 1 17 -1 21 -7 11 -7 -10 -13 -11
-30 -2 -28 16 -51 -6 -51 -49 0 -24 6 -33 26 -41 15 -5 34 -7 43 -5 9 3 27 -4
41 -14 15 -12 18 -18 8 -14 -19 6 -25 -10 -8 -21 15 -9 12 -25 -5 -25 -8 0
-15 -7 -15 -15 0 -18 14 -19 42 -4 11 6 22 8 25 5 3 -3 -6 -10 -21 -16 -29
-11 -31 -36 -3 -34 8 1 13 -4 11 -11 -3 -6 3 -18 12 -26 14 -12 19 -10 35 10
10 12 23 19 30 16 7 -5 3 -11 -11 -19 -27 -13 -28 -29 -3 -36 10 -3 18 -11 17
-17 -1 -7 -2 -24 -3 -38 -1 -29 -19 -33 -28 -7 -23 60 -155 171 -172 144 -3
-6 -15 -10 -26 -9 -40 4 -24 -28 30 -62 30 -18 52 -37 49 -42 -3 -5 -7 -9 -10
-9 -3 0 -3 4 0 9 9 13 -53 22 -72 10 -27 -17 -43 -58 -31 -80 6 -13 6 -25 -1
-39 -13 -24 -30 -26 -30 -5 0 8 -6 15 -14 15 -7 0 -19 7 -26 15 -14 17 -20 18
-39 6 -17 -11 -5 -51 16 -51 22 0 12 -9 -14 -13 -39 -6 -68 -35 -102 -101 -19
-36 -38 -66 -43 -66 -4 0 -7 -6 -6 -12 2 -8 -5 -12 -15 -10 -10 2 -25 -2 -33
-9 -10 -8 -14 -8 -14 0 0 6 5 11 10 11 11 0 28 37 37 80 4 21 1 26 -16 27 -14
1 -21 -4 -21 -16 0 -9 -6 -26 -14 -37 -10 -13 -11 -23 -4 -31 8 -10 6 -13 -6
-13 -12 0 -16 10 -16 43 0 24 -5 48 -12 55 -17 17 -58 15 -65 -4 -4 -11 -18
-14 -59 -12 -58 3 -71 15 -49 45 13 16 14 16 15 1 0 -9 -6 -19 -12 -21 -10 -4
-10 -6 0 -6 15 -1 72 86 72 110 0 35 -14 33 -117 -14 -12 -5 -24 -18 -26 -28
-8 -30 -25 -22 -42 18 -12 28 -13 38 -3 44 9 6 9 11 -1 23 -9 11 -10 16 -2 16
6 0 11 -4 11 -9 0 -5 9 -7 20 -4 24 6 27 23 4 23 -8 0 -30 11 -48 25 -18 14
-38 25 -44 25 -12 0 -42 28 -42 40 0 4 12 11 26 14 36 9 24 31 -18 32 -21 1
-45 10 -59 22 -12 12 -24 20 -26 18 -5 -5 30 -79 41 -87 12 -9 -2 -61 -14 -54
-6 4 -10 -7 -10 -25 0 -24 -7 -35 -32 -50 -35 -21 -78 -26 -93 -11 -6 5 -19
11 -30 14 -15 3 -13 5 8 6 41 2 44 26 8 63 -20 20 -31 42 -31 60 0 17 -5 27
-12 26 -8 -2 -12 6 -10 21 2 15 0 21 -7 17 -7 -4 -11 1 -11 12 0 23 24 36 59
33 13 -2 21 1 19 6 -21 42 -39 86 -36 89 2 2 17 -4 33 -12 24 -12 34 -13 53
-3 19 11 21 14 7 22 -10 5 -14 16 -10 28 4 13 2 19 -9 19 -9 0 -16 5 -16 11 0
5 -4 8 -9 5 -4 -3 -16 1 -26 8 -17 12 -16 14 13 24 43 15 40 25 -5 19 -21 -2
-30 -2 -20 0 21 5 23 23 2 23 -9 0 -12 6 -8 16 3 8 12 13 20 10 9 -4 13 0 11
11 -2 10 3 18 10 19 6 1 24 3 40 4 24 2 24 3 5 7 -20 4 -21 7 -12 24 6 12 17
18 25 15 8 -3 14 -1 14 4 0 6 5 10 10 10 11 0 69 60 70 73 0 4 -9 7 -19 7 -14
0 -18 5 -14 19 3 14 -2 20 -23 24 -41 8 -57 -2 -49 -30 4 -18 2 -24 -7 -21
-16 6 -45 -21 -50 -47 -2 -11 -12 -21 -23 -24 -11 -2 -31 -12 -44 -22 -13 -11
-32 -17 -42 -14 -10 4 -21 -1 -27 -10 -11 -21 -24 -6 -41 48 -14 40 -34 56
-66 51 -64 -10 -96 -20 -95 -29 0 -5 5 -11 10 -11 6 -1 14 -2 19 -3 5 0 14
-31 21 -68 7 -38 19 -79 28 -93 10 -16 15 -43 13 -76 -1 -29 2 -55 8 -59 6 -3
11 -18 10 -33 l0 -27 -16 33 c-9 17 -22 32 -28 32 -8 0 -15 28 -19 73 -4 39
-9 83 -10 97 -5 51 -29 84 -63 87 -19 3 -33 0 -33 -6 0 -6 -7 -11 -15 -11 -8
0 -15 -7 -15 -15 0 -8 -6 -15 -14 -15 -16 0 -31 34 -21 49 3 5 1 12 -4 16 -7
4 -7 15 -1 30 7 19 6 25 -4 25 -9 0 -12 -7 -9 -20 4 -16 0 -20 -21 -20 -34 0
-33 12 5 49 25 25 27 31 12 31 -24 0 -38 -11 -47 -35 -6 -16 -9 -17 -16 -5 -5
8 -6 18 -4 22 3 4 -10 8 -30 8 -30 0 -35 4 -41 30 -4 17 -10 28 -15 25 -5 -3
-12 0 -16 6 -4 6 -1 15 7 19 35 20 68 58 79 93 6 20 16 37 21 37 11 0 11 -8 0
-35 -5 -11 -5 -28 0 -37 7 -12 4 -18 -11 -23 -25 -8 -25 -17 0 -32 12 -8 21
-9 25 -3 3 6 1 10 -4 10 -6 0 -11 4 -11 8 0 8 18 11 88 12 33 0 43 4 39 14 -4
10 9 16 50 21 70 9 83 14 83 31 0 13 29 19 73 15 9 -1 17 2 17 7 0 20 218 32
230 12 6 -9 9 -9 15 0 4 7 23 19 43 27 l35 14 -37 25 c-22 15 -44 23 -55 19
-11 -3 -26 1 -35 10 -13 13 -20 14 -38 4 -13 -7 -26 -17 -30 -23 -6 -8 -8 -7
-8 1 0 7 7 16 16 21 12 7 14 14 6 28 -5 10 -16 32 -23 47 -8 17 -18 26 -26 22
-8 -2 -11 0 -8 5 3 6 13 10 21 10 8 0 14 5 14 10 0 6 -6 10 -14 10 -7 0 -27 3
-43 6 -25 5 -31 2 -36 -15 -6 -24 26 -71 49 -71 8 0 14 -10 14 -25 0 -19 -4
-23 -17 -18 -10 3 -25 12 -33 19 -8 7 -26 15 -40 19 -16 4 -31 20 -43 45 -10
22 -31 45 -50 54 l-32 17 35 -5 35 -6 -31 14 c-17 8 -81 18 -143 22 -107 7
-111 6 -105 -12 4 -10 19 -29 33 -41 l26 -23 -34 3 c-20 1 -36 -3 -38 -10 -3
-8 3 -13 15 -13 20 0 52 -29 52 -48 0 -18 -42 -14 -78 8 -18 11 -39 20 -46 20
-8 0 -36 -20 -62 -44 -44 -42 -98 -63 -110 -44 -8 12 -82 10 -86 -3 -5 -14
-158 -25 -158 -11 0 6 15 12 33 14 24 2 32 8 32 23 0 11 6 22 12 25 22 9 -54
62 -78 55 -26 -9 -45 -55 -27 -67 14 -9 18 -6 -60 -56 -55 -36 -72 -35 -72 3
0 20 7 25 35 31 61 11 33 29 -56 36 -84 7 -84 7 -111 -23 -30 -32 -37 -54 -14
-46 19 7 25 -9 18 -51 -4 -27 -2 -31 12 -26 9 3 16 12 16 20 0 8 7 14 16 14
18 0 46 -62 38 -83 -3 -8 -1 -18 5 -22 6 -3 11 -13 11 -21 0 -8 -4 -13 -9 -9
-5 3 -12 -4 -16 -15 -9 -28 -28 -25 -20 3 5 16 4 18 -4 7 -16 -24 -52 15 -46
51 4 23 2 26 -14 22 -22 -6 -36 34 -19 54 8 10 6 13 -5 13 -11 0 -14 5 -10 17
4 10 2 14 -5 9 -6 -3 -8 -20 -5 -40 4 -25 1 -35 -11 -39 -14 -6 -15 -3 -6 13
7 13 7 20 1 20 -6 0 -18 -14 -26 -31 -15 -28 -15 -32 1 -43 9 -7 27 -11 39 -8
13 2 24 -2 28 -10 4 -12 -3 -13 -43 -5 -27 5 -55 7 -62 4 -8 -2 -20 -28 -28
-56 -9 -36 -19 -51 -31 -51 -9 0 -23 -10 -32 -22 l-15 -23 5 28 c4 18 12 27
24 27 21 0 34 16 19 25 -6 4 -4 20 6 43 19 48 8 109 -24 130 -17 11 -22 12
-20 2 2 -7 -3 -15 -9 -17 -7 -3 -13 2 -13 10 0 9 -2 22 -6 30 -3 8 6 28 21 45
14 16 23 36 20 44 -3 7 0 21 7 31 12 16 16 16 63 -2 30 -11 55 -28 62 -42 13
-24 13 -23 13 8 0 43 29 87 59 91 21 2 22 0 10 -15 -12 -14 -12 -15 1 -10 8 4
23 10 33 13 18 7 24 24 7 24 -6 0 -6 7 2 19 9 15 7 25 -10 53 -29 46 -57 78
-70 78 -6 0 -12 3 -14 8 -1 4 -19 6 -38 4z m535 -426 c21 8 36 -30 28 -73 -3
-21 -7 -48 -7 -60 -1 -13 -4 -23 -7 -23 -4 0 -9 -9 -12 -21 -4 -16 -3 -18 9
-8 11 9 14 8 14 -9 0 -12 -5 -24 -10 -27 -6 -4 -8 -11 -5 -16 9 -14 -29 -11
-49 4 -15 11 -19 31 -23 108 -2 51 -2 104 2 116 6 24 38 36 43 16 2 -6 9 -10
17 -7z m778 -449 c4 3 7 2 7 -4 0 -6 -7 -13 -15 -17 -11 -4 -13 -11 -5 -31 10
-26 4 -55 -11 -55 -5 0 -9 5 -9 10 0 6 -4 10 -9 10 -5 0 -4 -11 2 -25 7 -14
20 -25 30 -25 9 0 17 -5 17 -10 0 -10 -54 -5 -73 7 -5 3 -6 -3 -3 -15 4 -11 2
-23 -4 -27 -5 -3 -10 -20 -10 -37 0 -35 -12 -31 -15 4 -1 13 -9 47 -18 75 -11
36 -13 62 -7 82 13 47 20 54 37 40 12 -10 16 -10 23 0 4 8 13 10 19 7 7 -5 11
2 11 16 1 21 2 22 14 6 7 -10 16 -15 19 -11z m-72 -408 c16 -11 29 -17 29 -13
0 4 10 -1 23 -12 12 -11 35 -28 50 -38 21 -13 26 -21 18 -30 -6 -7 -7 -17 -3
-21 4 -5 -1 -5 -10 -2 -19 7 -34 -24 -22 -44 4 -7 3 -9 -4 -5 -6 3 -15 -1 -20
-10 -8 -14 -22 -7 -100 52 -91 69 -109 97 -79 122 32 26 83 26 118 1z"/>
<path d="M573 1673 c-18 -7 -16 -23 2 -23 8 0 15 -4 15 -10 0 -5 7 -10 15 -10
25 0 17 -18 -14 -35 -17 -8 -32 -19 -35 -23 -6 -10 55 -3 70 9 9 7 35 5 74 -8
13 -4 12 -6 -3 -17 -16 -13 -16 -14 3 -19 11 -3 20 -1 20 5 0 5 4 7 9 4 4 -3
16 1 26 8 17 12 15 15 -21 40 -26 17 -33 26 -21 26 10 0 25 -7 33 -15 20 -20
40 -19 48 1 8 22 -11 44 -38 44 -12 0 -26 4 -32 9 -10 10 -133 21 -151 14z"/>
<path d="M1737 966 c-4 -9 2 -17 13 -21 19 -6 36 -35 20 -35 -6 0 -10 5 -10
11 0 6 -20 9 -51 8 -28 -2 -53 2 -57 8 -4 5 -17 15 -29 22 -21 10 -23 9 -23
-10 0 -15 5 -19 15 -15 8 3 15 0 15 -7 0 -13 67 -38 97 -36 11 0 13 3 6 6 -7
2 -13 9 -13 14 0 19 26 7 61 -29 41 -41 59 -82 37 -82 -9 0 -9 -3 2 -10 8 -5
22 -7 31 -4 11 3 19 -3 23 -18 5 -19 8 -21 17 -8 8 12 9 10 4 -7 -7 -25 12
-32 32 -12 9 9 19 6 40 -9 23 -16 30 -17 40 -6 9 9 10 20 3 39 -6 15 -8 30 -6
34 3 4 -10 13 -29 19 -40 15 -67 42 -41 42 9 0 16 5 16 11 0 5 -4 7 -10 4 -5
-3 -10 -2 -10 4 0 6 -7 8 -15 5 -11 -4 -13 -2 -10 9 6 15 -20 31 -36 22 -11
-8 -46 12 -76 41 -27 27 -48 31 -56 10z"/>
</g>
</svg>
